<svg width="40" height="40" viewBox="0 0 40 40" fill="none" xmlns="http://www.w3.org/2000/svg">
<rect width="40" height="40" rx="20" fill="#DCE3FD"/>
<path d="M15.5271 18.5417C16.1991 18.5417 16.8054 18.1702 17.2201 17.6415C17.8644 16.8199 18.6764 16.1362 19.6046 15.6419C20.2064 15.3214 20.7286 14.8453 20.9818 14.2123C21.159 13.7693 21.25 13.2966 21.25 12.8196V12.2917C21.25 11.9466 21.5298 11.6667 21.875 11.6667C22.9105 11.6667 23.75 12.5062 23.75 13.5417C23.75 14.5014 23.5337 15.4106 23.1472 16.2232C22.9259 16.6884 23.2364 17.2917 23.7516 17.2917M23.7516 17.2917H26.3564C27.212 17.2917 27.9778 17.8701 28.0683 18.7208C28.1058 19.0727 28.125 19.43 28.125 19.7917C28.125 22.1648 27.2984 24.3447 25.9175 26.0594C25.5945 26.4605 25.0952 26.6667 24.5802 26.6667H21.2335C20.8305 26.6667 20.4301 26.6018 20.0477 26.4743L17.4523 25.6092C17.0699 25.4817 16.6695 25.4167 16.2665 25.4167H14.9202M23.7516 17.2917H21.875M14.9202 25.4167C14.9892 25.5872 15.0643 25.7546 15.1452 25.9186C15.3095 26.2515 15.0802 26.6667 14.7089 26.6667H13.9524C13.2118 26.6667 12.5249 26.2351 12.3088 25.5267C12.0267 24.6023 11.875 23.621 11.875 22.6042C11.875 21.3105 12.1207 20.0742 12.5679 18.9393C12.8221 18.2943 13.4728 17.9167 14.1661 17.9167H15.0434C15.4367 17.9167 15.6644 18.38 15.4603 18.7161C14.7716 19.8499 14.375 21.1808 14.375 22.6042C14.375 23.5988 14.5686 24.5482 14.9202 25.4167Z" stroke="#2D41E3" stroke-width="1.25" stroke-linecap="round" stroke-linejoin="round"/>
</svg>
