<svg width="242" height="168" viewBox="0 0 242 168" fill="none" xmlns="http://www.w3.org/2000/svg">
<rect width="242" height="168" fill="#2D41E3"/>
<g clip-path="url(#clip0_189_2551)">
<path d="M100.175 64V70.8459H91.0871C87.9607 70.8459 85.4254 73.3259 85.4254 76.3842V83.0306H78.4271V66.1159C78.4282 64.9477 79.397 64 80.5901 64H85.4254V67.2325C87.1062 65.2569 89.6383 64 92.4702 64H100.175Z" fill="white"/>
<path d="M75.5272 64.038H73.3642V65.3857C72.3717 64.5446 71.0771 64.038 69.6627 64.038C69.2021 64.038 68.7544 64.0918 68.3261 64.1942C66.272 64.6786 64.6559 66.2595 64.1596 68.2677C64.055 68.6867 64 69.1247 64 69.5753V77.4923C64 77.9419 64.055 78.3798 64.1586 78.7988C64.6548 80.8071 66.272 82.388 68.3261 82.8745C68.7544 82.9768 69.2021 83.0306 69.6627 83.0306C71.0781 83.0306 72.3717 82.523 73.3642 81.683V83.0306H77.6892V66.1529C77.6892 64.9836 76.7215 64.037 75.5261 64.037L75.5272 64.038ZM73.3642 77.4923C73.3642 78.2036 72.7849 78.7819 72.062 78.7988C72.0502 78.7988 70.488 78.7988 70.488 78.7988C69.2938 78.7988 68.325 77.8522 68.325 76.6829V70.3826C68.325 69.2144 69.2938 68.2667 70.488 68.2667H72.0275C72.7654 68.2667 73.3642 68.8524 73.3642 69.5742V77.4913V77.4923Z" fill="white"/>
<path d="M120.626 69.5383V83.0306H113.628V72.9618C113.628 71.7936 112.659 70.8459 111.465 70.8459H110.074C109.869 70.8459 109.67 70.8733 109.482 70.9261C108.712 71.1403 108.117 71.7608 107.956 72.5344C107.928 72.6716 107.911 72.8151 107.911 72.9607V83.0296H100.913V64H107.911V66.6109C107.911 66.6109 107.909 66.614 107.908 66.6161H107.911V66.6109C108.912 65.0427 110.69 64 112.718 64H114.965C116.994 64 118.775 65.0458 119.774 66.6151C120.315 67.4636 120.626 68.464 120.626 69.5373V69.5383Z" fill="white"/>
<path d="M177.937 64.019V80.8957C177.937 82.0639 176.969 83.0116 175.774 83.0116H170.939V80.4007C170.939 80.4007 170.941 80.3976 170.942 80.3955H170.939V80.4007C169.939 81.969 168.16 83.0116 166.132 83.0116H163.885C161.856 83.0116 160.075 81.9658 159.076 80.3965C158.535 79.548 158.224 78.5476 158.224 77.4743V64.019H165.222V74.0498C165.222 75.2181 166.191 76.1657 167.385 76.1657H168.776C168.981 76.1657 169.18 76.1383 169.368 76.0855C170.138 75.8713 170.733 75.2508 170.894 74.4772C170.922 74.34 170.939 74.1965 170.939 74.0509V64.019H177.937Z" fill="white"/>
<path d="M157.499 72.6916C157.499 72.6631 157.496 72.6357 157.495 72.6083C157.492 72.5323 157.488 72.4584 157.482 72.3835C157.48 72.3603 157.479 72.3381 157.478 72.3149C157.471 72.222 157.462 72.1291 157.452 72.0363C157.45 72.0131 157.447 71.9898 157.444 71.9656C157.435 71.8927 157.427 71.821 157.417 71.7482C157.412 71.7207 157.409 71.6943 157.405 71.6669C157.39 71.5751 157.376 71.4833 157.358 71.3915C157.358 71.3872 157.358 71.382 157.356 71.3777C157.34 71.2902 157.322 71.2026 157.303 71.115C157.298 71.0907 157.291 71.0654 157.287 71.04C157.27 70.9641 157.252 70.8881 157.233 70.8121C157.229 70.7963 157.225 70.7804 157.22 70.7646C157.197 70.6738 157.172 70.5831 157.145 70.4923C157.139 70.4765 157.135 70.4617 157.13 70.4459C157.107 70.3689 157.082 70.2908 157.056 70.2148C157.05 70.1979 157.044 70.18 157.039 70.1631C156.978 69.9794 156.91 69.8 156.836 69.6227C156.831 69.6111 156.825 69.5995 156.821 69.5879C156.369 68.5083 155.71 67.5364 154.89 66.7164C154.89 66.7164 154.888 66.7143 154.887 66.7122C154.689 66.5159 154.483 66.328 154.269 66.1486C154.263 66.1444 154.258 66.1402 154.253 66.136C154.186 66.079 154.116 66.0241 154.047 65.9682C154.044 65.9682 154.042 65.965 154.04 65.9629C153.894 65.85 153.744 65.7402 153.592 65.6357C153.585 65.6305 153.576 65.6252 153.568 65.6199C153.502 65.5745 153.434 65.5292 153.366 65.4848C153.355 65.4774 153.345 65.4711 153.334 65.4648C153.181 65.3666 153.025 65.2738 152.865 65.1841C152.855 65.1798 152.848 65.1746 152.839 65.1693C152.77 65.1313 152.7 65.0944 152.631 65.0585C152.615 65.05 152.599 65.0416 152.582 65.0332C152.512 64.9973 152.441 64.9614 152.37 64.9276C152.36 64.9223 152.352 64.9181 152.343 64.9139C152.26 64.8738 152.176 64.8369 152.092 64.7989C152.085 64.7957 152.079 64.7936 152.072 64.7904C151.998 64.7577 151.924 64.7271 151.849 64.6965C151.828 64.6881 151.808 64.6807 151.787 64.6722C151.721 64.6458 151.656 64.6205 151.589 64.5962C151.57 64.5889 151.551 64.5815 151.533 64.5762C151.364 64.515 151.195 64.4591 151.022 64.4073C151.001 64.401 150.977 64.3947 150.956 64.3883C150.89 64.3704 150.825 64.3514 150.759 64.3345C150.734 64.3271 150.711 64.3208 150.685 64.3155C150.609 64.2965 150.535 64.2765 150.458 64.2596C150.446 64.2575 150.436 64.2543 150.423 64.2512C150.335 64.2311 150.248 64.2121 150.158 64.1952C150.137 64.191 150.113 64.1868 150.091 64.1826C150.024 64.1699 149.957 64.1583 149.889 64.1467C149.862 64.1414 149.834 64.1372 149.805 64.1319C149.738 64.1214 149.67 64.1119 149.602 64.1024C149.58 64.0992 149.556 64.096 149.534 64.0929C149.444 64.0813 149.353 64.0718 149.263 64.0623C149.247 64.0601 149.228 64.0591 149.212 64.058C149.138 64.0506 149.064 64.0443 148.99 64.0401C148.96 64.038 148.931 64.0369 148.901 64.0348C148.836 64.0306 148.769 64.0274 148.702 64.0243C148.675 64.0243 148.647 64.0222 148.619 64.0211C148.527 64.019 148.434 64.0169 148.342 64.0169H123.508C122.314 64.0169 121.345 64.9646 121.345 66.1328V80.8946C121.345 82.0629 122.314 83.0106 123.508 83.0106H148.342C148.434 83.0106 148.527 83.0085 148.619 83.0063C148.647 83.0063 148.675 83.0042 148.703 83.0032C148.769 83 148.836 82.9968 148.901 82.9926C148.931 82.9905 148.961 82.9895 148.99 82.9873C149.063 82.9821 149.136 82.9757 149.208 82.9705C149.226 82.9684 149.246 82.9673 149.264 82.9652C149.353 82.9557 149.443 82.9462 149.531 82.9346C149.556 82.9314 149.581 82.9272 149.608 82.924C149.673 82.9145 149.738 82.9061 149.802 82.8955C149.834 82.8913 149.864 82.886 149.894 82.8808C149.958 82.8692 150.02 82.8586 150.084 82.847C150.11 82.8417 150.136 82.8364 150.161 82.8312C150.248 82.8143 150.333 82.7963 150.418 82.7773C150.438 82.7731 150.458 82.7678 150.478 82.7626C150.544 82.7467 150.611 82.7309 150.677 82.714C150.708 82.7066 150.739 82.6982 150.769 82.6897C150.826 82.6739 150.883 82.6591 150.94 82.6433C150.971 82.6338 151 82.6264 151.03 82.6169C151.102 82.5958 151.172 82.5726 151.245 82.5494C151.26 82.5452 151.274 82.5399 151.29 82.5346C151.368 82.5093 151.445 82.4818 151.523 82.4544C151.551 82.4439 151.58 82.4333 151.608 82.4228C151.662 82.4027 151.717 82.3805 151.771 82.3594C151.801 82.3478 151.83 82.3362 151.861 82.3236C151.919 82.3003 151.976 82.2761 152.032 82.2507C152.055 82.2402 152.079 82.2317 152.101 82.2212C152.179 82.1874 152.254 82.1526 152.331 82.1167C152.355 82.104 152.378 82.0935 152.403 82.0808C152.457 82.0544 152.512 82.0281 152.565 82.0006C152.594 81.9858 152.622 81.9721 152.65 81.9574C152.702 81.9299 152.755 81.9014 152.807 81.8729C152.831 81.8592 152.855 81.8476 152.88 81.8328C152.953 81.7917 153.026 81.7505 153.099 81.7072C153.114 81.6977 153.127 81.6904 153.142 81.6809C153.202 81.645 153.261 81.608 153.32 81.5711C153.344 81.5553 153.367 81.5405 153.391 81.5257C153.442 81.493 153.494 81.4592 153.545 81.4244C153.566 81.4086 153.589 81.3949 153.61 81.379C153.677 81.3337 153.744 81.2862 153.81 81.2387C153.813 81.2355 153.817 81.2334 153.82 81.2313C153.891 81.1806 153.96 81.1268 154.029 81.073C154.045 81.0603 154.061 81.0487 154.077 81.035C154.13 80.9928 154.184 80.9506 154.236 80.9063C154.253 80.8925 154.271 80.8788 154.287 80.864C154.347 80.8144 154.407 80.7627 154.465 80.7121C154.471 80.7057 154.478 80.7005 154.482 80.6962C154.551 80.6361 154.618 80.5749 154.685 80.5126C154.689 80.5084 154.694 80.5042 154.698 80.5C154.758 80.443 154.818 80.386 154.876 80.3269C154.887 80.3163 154.896 80.3068 154.906 80.2973C154.964 80.2382 155.023 80.1781 155.079 80.1179C155.083 80.1148 155.086 80.1105 155.09 80.1074C155.217 79.9712 155.34 79.833 155.459 79.6905C155.459 79.6884 155.461 79.6863 155.463 79.6842C156.022 79.0098 156.481 78.2542 156.823 77.4395C156.828 77.4279 156.833 77.4174 156.837 77.4047C156.912 77.2274 156.979 77.0469 157.041 76.8633C157.047 76.8475 157.052 76.8306 157.057 76.8148C157.083 76.7367 157.108 76.6575 157.133 76.5784C157.137 76.5636 157.141 76.5499 157.146 76.5351C157.173 76.4444 157.199 76.3525 157.223 76.2597C157.227 76.2449 157.23 76.2312 157.234 76.2175C157.254 76.1394 157.273 76.0613 157.29 75.9832C157.296 75.96 157.301 75.9378 157.305 75.9135C157.325 75.8217 157.345 75.7299 157.362 75.637C157.378 75.5442 157.394 75.4502 157.408 75.3563C157.412 75.332 157.416 75.3067 157.419 75.2803C157.431 75.2054 157.439 75.1294 157.448 75.0534C157.45 75.0334 157.453 75.0112 157.455 74.9901C157.466 74.8972 157.474 74.8023 157.481 74.7083C157.481 74.6883 157.483 74.6661 157.486 74.6461C157.491 74.5701 157.495 74.492 157.499 74.416C157.499 74.3886 157.501 74.3622 157.502 74.3358C157.505 74.2398 157.507 74.1427 157.507 74.0456V72.9723C157.507 72.8763 157.505 72.7813 157.502 72.6863L157.499 72.6916ZM139.151 73.7881C139.151 73.7438 139.151 73.7005 139.149 73.6572C139.149 73.7237 139.145 73.7902 139.139 73.8556C139.136 73.9221 139.13 73.9886 139.123 74.054C139.116 74.1195 139.109 74.1828 139.1 74.2472C139.1 74.2514 139.1 74.2567 139.098 74.2619C139.093 74.3094 139.085 74.3569 139.078 74.4034C139.074 74.4255 139.07 74.4487 139.066 74.4709C139.066 74.4793 139.064 74.4867 139.061 74.4952C139.053 74.5416 139.044 74.588 139.034 74.6334C139.02 74.6967 139.008 74.7601 138.99 74.8223C138.975 74.8825 138.96 74.9426 138.944 75.0028C138.941 75.0123 138.938 75.0207 138.935 75.0313C138.92 75.0851 138.903 75.1389 138.886 75.1927C138.866 75.2539 138.846 75.3141 138.823 75.3732C138.807 75.4207 138.789 75.4682 138.769 75.5146C138.716 75.6518 138.657 75.7848 138.593 75.9156C138.568 75.9663 138.543 76.0169 138.516 76.0665C138.457 76.1774 138.394 76.2871 138.327 76.3937C138.294 76.4465 138.26 76.5003 138.224 76.552C138.193 76.5984 138.162 76.6449 138.128 76.6892C138.087 76.7462 138.046 76.8021 138.002 76.858C137.964 76.9066 137.925 76.9562 137.887 77.0026C137.887 77.0026 137.887 77.0026 137.884 77.0047C137.846 77.0522 137.806 77.0997 137.763 77.1461C137.722 77.1926 137.679 77.2401 137.635 77.2844C137.592 77.3298 137.549 77.3751 137.503 77.4195C137.457 77.4638 137.412 77.5071 137.366 77.5493C137.277 77.6316 137.185 77.7118 137.09 77.7867C137.085 77.7909 137.081 77.7952 137.075 77.7983C136.781 78.0347 136.463 78.2416 136.123 78.4167C136.058 78.4516 135.992 78.4832 135.925 78.5149C135.795 78.5867 135.656 78.6458 135.51 78.688C135.51 78.688 135.508 78.688 135.507 78.688C134.88 78.9222 134.199 79.051 133.488 79.051H127.009C126.271 79.051 125.672 78.4653 125.672 77.7435V69.284C125.672 68.5621 126.271 67.9764 127.009 67.9764H133.488C134.199 67.9764 134.88 68.1052 135.507 68.3395C135.507 68.3395 135.509 68.3395 135.51 68.3395C135.655 68.3827 135.795 68.4418 135.925 68.5125C135.992 68.5442 136.058 68.5759 136.123 68.6107C136.406 68.7553 136.676 68.9252 136.929 69.1141C136.978 69.151 137.028 69.189 137.075 69.227C137.081 69.2312 137.085 69.2354 137.09 69.2397C137.185 69.3156 137.277 69.3948 137.366 69.4771C137.412 69.5193 137.457 69.5626 137.503 69.6069C137.549 69.6512 137.592 69.6956 137.635 69.742C137.679 69.7874 137.722 69.8338 137.763 69.8802C137.806 69.9267 137.846 69.9742 137.884 70.0217C137.884 70.0217 137.887 70.0217 137.887 70.0238C137.927 70.0702 137.964 70.1198 138.002 70.1683C138.039 70.2137 138.073 70.2602 138.107 70.3055C138.124 70.3298 138.141 70.353 138.157 70.3784C138.183 70.4142 138.207 70.4501 138.233 70.486C138.264 70.5335 138.297 70.5831 138.327 70.6316C138.329 70.6348 138.33 70.6369 138.332 70.6401C138.363 70.6907 138.395 70.7424 138.424 70.7942C138.454 70.8459 138.483 70.8997 138.511 70.9525C138.563 71.0485 138.612 71.1466 138.656 71.2448C138.672 71.2775 138.686 71.3113 138.701 71.344C138.725 71.3989 138.749 71.4548 138.77 71.5118C138.79 71.5582 138.808 71.6057 138.824 71.6532C138.847 71.7123 138.867 71.7724 138.887 71.8336C138.904 71.8864 138.921 71.9402 138.936 71.9951C138.938 72.0036 138.942 72.0109 138.944 72.0194C138.96 72.0806 138.977 72.1418 138.991 72.203C139.008 72.2653 139.022 72.3286 139.036 72.3919C139.047 72.4457 139.057 72.4996 139.067 72.5555C139.071 72.5777 139.074 72.5998 139.078 72.6209C139.087 72.6695 139.094 72.7201 139.1 72.7697C139.1 72.7729 139.1 72.7761 139.1 72.7792C139.11 72.8425 139.116 72.908 139.123 72.9723C139.13 73.0378 139.136 73.1043 139.139 73.1707C139.145 73.2372 139.148 73.3037 139.149 73.3691C139.151 73.3259 139.151 73.2826 139.151 73.2383V73.7849V73.7881Z" fill="white"/>
<path d="M98.0132 71.9307H95.8501V73.2784C94.8576 72.4383 93.563 71.9307 92.1487 71.9307C91.688 71.9307 91.2403 71.9845 90.812 72.0869C88.759 72.5713 87.1429 74.1522 86.6456 76.1615C86.541 76.5805 86.4859 77.0184 86.4859 77.4691V77.4923C86.4859 77.9418 86.541 78.3798 86.6445 78.7988C87.1408 80.807 88.7579 82.3879 90.812 82.8744C91.2403 82.9768 91.688 83.0306 92.1487 83.0306C93.5641 83.0306 94.8576 82.523 95.8501 81.683V83.0306H100.175V74.0466C100.175 72.8773 99.2074 71.9307 98.0121 71.9307H98.0132ZM95.8501 78.2985C95.8501 79.0098 95.2708 79.5881 94.548 79.605C94.5361 79.605 92.974 79.605 92.974 79.605C91.7797 79.605 90.8109 78.6584 90.8109 77.4891V77.4838C90.8109 77.4838 90.8109 77.4817 90.8109 77.4807C90.8109 77.4796 90.8109 77.4786 90.8109 77.4775V77.4722C90.8109 76.304 91.7797 75.3563 92.974 75.3563H94.5135C95.2514 75.3563 95.8501 75.942 95.8501 76.6638V78.2975V78.2985Z" fill="white"/>
</g>
<path d="M78.4839 87.264V91.008H73.9719V104.184H69.2679V91.008H64.8039V87.264H78.4839Z" fill="white"/>
<path d="M88.3363 104.352C86.7523 104.352 85.2963 103.984 83.9683 103.248C82.6403 102.496 81.5843 101.464 80.8003 100.152C80.0323 98.824 79.6483 97.328 79.6483 95.664C79.6483 94 80.0323 92.512 80.8003 91.2C81.5843 89.872 82.6403 88.84 83.9683 88.104C85.2963 87.368 86.7523 87 88.3363 87C89.9363 87 91.3923 87.368 92.7043 88.104C94.0323 88.84 95.0803 89.872 95.8483 91.2C96.6163 92.512 97.0003 94 97.0003 95.664C97.0003 97.328 96.6163 98.824 95.8483 100.152C95.0803 101.464 94.0323 102.496 92.7043 103.248C91.3763 103.984 89.9203 104.352 88.3363 104.352ZM88.3363 99.984C89.5363 99.984 90.4803 99.592 91.1683 98.808C91.8723 98.024 92.2243 96.976 92.2243 95.664C92.2243 94.32 91.8723 93.264 91.1683 92.496C90.4803 91.712 89.5363 91.32 88.3363 91.32C87.1203 91.32 86.1683 91.712 85.4803 92.496C84.7923 93.264 84.4483 94.32 84.4483 95.664C84.4483 96.992 84.7923 98.048 85.4803 98.832C86.1683 99.6 87.1203 99.984 88.3363 99.984Z" fill="white"/>
<path d="M121.595 88.104C120.283 87.368 118.827 87 117.227 87V91.32C118.427 91.32 119.371 91.712 120.059 92.496C120.763 93.264 121.115 94.32 121.115 95.664C121.115 96.976 120.763 98.024 120.059 98.808C119.371 99.592 118.427 99.984 117.227 99.984V104.352C118.811 104.352 120.267 103.984 121.595 103.248C122.923 102.496 123.971 101.464 124.739 100.152C125.507 98.824 125.891 97.328 125.891 95.664C125.891 94 125.507 92.512 124.739 91.2C123.971 89.872 122.923 88.84 121.595 88.104Z" fill="white"/>
<path d="M107.227 87C105.643 87 104.187 87.368 102.859 88.104C101.531 88.84 100.475 89.872 99.6909 91.2C98.9229 92.512 98.5389 94 98.5389 95.664C98.5389 97.328 98.9229 98.824 99.6909 100.152C100.475 101.464 101.531 102.496 102.859 103.248C104.187 103.984 105.643 104.352 107.227 104.352L107.227 99.984C106.011 99.984 105.059 99.6 104.371 98.832C103.683 98.048 103.339 96.992 103.339 95.664C103.339 94.32 103.683 93.264 104.371 92.496C105.059 91.712 106.011 91.32 107.227 91.32L107.227 87Z" fill="white"/>
<path d="M117.227 99.984V104.352H107.227L107.227 99.984H117.227Z" fill="white"/>
<path d="M117.227 87V91.32H107.227L107.227 87H117.227Z" fill="white"/>
<path d="M132.71 100.584H137.966V104.184H128.006V87.264H132.71V100.584Z" fill="white"/>
<path d="M149.803 104.184L144.499 96.768V104.184H139.795V87.264H144.499V94.56L149.755 87.264H155.179L148.963 95.472L155.491 104.184H149.803Z" fill="white"/>
<path d="M161.913 87.264V104.184H157.209V87.264H161.913Z" fill="white"/>
<path d="M177.335 87.264V91.008H172.823V104.184H168.119V91.008H163.655V87.264H177.335Z" fill="white"/>
<defs>
<clipPath id="clip0_189_2551">
<rect width="114" height="19" fill="white" transform="translate(64 64)"/>
</clipPath>
</defs>
</svg>
